<svg width="87.000000" height="49.000000" viewBox="0 0 87 49" fill="none" xmlns="http://www.w3.org/2000/svg" xmlns:xlink="http://www.w3.org/1999/xlink">
	<desc>
			Created with Pixso.
	</desc>
	<defs>
		<clipPath id="clip1919_175">
			<rect id="Ресурс 2 1" width="13.162319" height="26.502504" transform="translate(73.459473 0.738281)" fill="white" fill-opacity="0"/>
		</clipPath>
		<clipPath id="clip1919_179">
			<rect id="Ресурс 2 2" width="14.051663" height="28.281197" transform="translate(72.570312 20.481445)" fill="white" fill-opacity="0"/>
		</clipPath>
		<clipPath id="clip1919_160">
			<rect id="logo" width="87.000000" height="49.000000" fill="white" fill-opacity="0"/>
		</clipPath>
	</defs>
	<rect id="logo" width="87.000000" height="49.000000" fill="#FFFFFF" fill-opacity="0"/>
	<g clip-path="url(#clip1919_160)">
		<path id="Vector" d="M20.86 22.33C18.72 22.33 16.99 20.55 16.99 18.36C16.99 16.17 18.72 14.39 20.86 14.39C23 14.39 24.73 16.17 24.73 18.36C24.73 20.55 23 22.33 20.86 22.33Z" stroke="#FFFFFF" stroke-opacity="1.000000" stroke-width="0.731399"/>
		<path id="Vector" d="M23.95 10.27C21.82 10.27 20.08 8.49 20.08 6.3C20.08 4.11 21.82 2.33 23.95 2.33C26.09 2.33 27.82 4.11 27.82 6.3C27.82 8.49 26.09 10.27 23.95 10.27Z" stroke="#FFFFFF" stroke-opacity="1.000000" stroke-width="0.731399"/>
		<path id="Vector" d="M24.1 6.74C24.14 6.73 24.17 6.73 24.19 6.71C24.22 6.7 24.24 6.68 24.26 6.65C24.64 6.13 24.16 5.97 24.16 5.97L16.68 6.57C16.65 6.57 16.61 6.57 16.58 6.56C16.54 6.54 16.51 6.52 16.49 6.5C16.47 6.47 16.45 6.44 16.44 6.4C16.43 6.37 16.43 6.33 16.44 6.3C16.57 5.67 16.8 5.07 17.12 4.52C17.16 4.45 17.21 4.39 17.28 4.35C17.35 4.31 17.43 4.29 17.51 4.29C17.59 4.29 17.67 4.31 17.74 4.35C17.81 4.39 17.86 4.45 17.9 4.52L17.9 5.14C17.89 5.18 17.91 5.22 17.93 5.26C17.97 5.32 18.03 5.37 18.09 5.41C18.12 5.43 18.16 5.44 18.2 5.44C18.23 5.44 18.27 5.43 18.3 5.41C18.33 5.39 18.36 5.37 18.38 5.34C18.4 5.31 18.41 5.28 18.41 5.24C18.47 4.75 18.49 3.66 17.47 3.62C16.09 3.55 15.73 6.15 15.65 7.11C15.64 7.15 15.65 7.2 15.66 7.24C15.68 7.29 15.7 7.33 15.73 7.36C15.76 7.39 15.8 7.42 15.84 7.43C15.89 7.45 15.93 7.46 15.98 7.46L17.1 7.46C17.13 7.46 17.16 7.47 17.19 7.48C17.22 7.49 17.24 7.51 17.26 7.53C17.28 7.55 17.3 7.58 17.31 7.61C17.32 7.64 17.32 7.67 17.32 7.7L16.79 13.34C16.79 13.4 16.77 13.45 16.73 13.48C16.69 13.52 16.64 13.54 16.59 13.54L15.02 13.64C14.98 13.64 14.95 13.63 14.92 13.62C14.89 13.61 14.86 13.59 14.84 13.56C14.82 13.54 14.8 13.51 14.79 13.47C14.78 13.44 14.78 13.41 14.79 13.38C14.84 13.1 14.87 12.83 14.88 12.55C14.88 12.28 14.64 12.17 14.51 12.1C14.5 12.08 14.48 12.08 14.46 12.07C14.43 12.07 14.41 12.08 14.39 12.08C14.38 12.09 14.36 12.1 14.35 12.12C14.33 12.14 14.32 12.16 14.32 12.18L13.7 15.15C13.69 15.18 13.69 15.22 13.7 15.25C13.71 15.29 13.73 15.32 13.75 15.35C13.82 15.42 13.92 15.47 14.03 15.47C14.08 15.48 14.12 15.47 14.17 15.44C14.21 15.41 14.24 15.37 14.26 15.33L14.51 14.59C14.52 14.55 14.55 14.52 14.58 14.49C14.61 14.47 14.65 14.45 14.7 14.45L16.56 14.26C16.6 14.26 16.63 14.26 16.66 14.27C16.7 14.29 16.73 14.31 16.75 14.33L20.75 18.72C20.77 18.74 20.79 18.76 20.82 18.77C20.85 18.79 20.88 18.79 20.91 18.79L21.06 18.79C21.11 18.79 21.15 18.78 21.19 18.75C21.23 18.72 21.26 18.69 21.27 18.64L23.17 13.02C23.18 12.98 23.18 12.95 23.18 12.91C23.17 12.87 23.15 12.84 23.13 12.81L18.74 7.54C18.72 7.52 18.71 7.49 18.7 7.46C18.69 7.43 18.69 7.4 18.69 7.37L18.69 7.32C18.7 7.27 18.72 7.22 18.76 7.19C18.79 7.15 18.84 7.13 18.89 7.13L24.1 6.74ZM22.13 14.01L20.91 17.35C20.9 17.39 20.88 17.42 20.85 17.44C20.82 17.47 20.79 17.48 20.75 17.49C20.71 17.5 20.67 17.5 20.64 17.48C20.6 17.47 20.57 17.45 20.54 17.42L17.84 14.5C17.82 14.47 17.8 14.43 17.79 14.39C17.78 14.35 17.79 14.31 17.8 14.28C17.81 14.24 17.84 14.21 17.87 14.18C17.9 14.15 17.93 14.14 17.97 14.13L21.87 13.5C21.9 13.5 21.93 13.5 21.96 13.51C21.99 13.52 22.02 13.54 22.04 13.56C22.07 13.58 22.08 13.6 22.1 13.63C22.11 13.66 22.12 13.69 22.12 13.72L22.12 13.93C22.13 13.96 22.13 13.98 22.13 14.01ZM21.75 12.67L17.77 13.3C17.73 13.3 17.7 13.3 17.67 13.29C17.64 13.28 17.61 13.26 17.59 13.24C17.56 13.21 17.54 13.18 17.53 13.15C17.52 13.12 17.52 13.09 17.52 13.06L18.01 8.42C18.02 8.38 18.04 8.35 18.06 8.32C18.09 8.29 18.12 8.27 18.16 8.26C18.2 8.24 18.24 8.24 18.28 8.25C18.32 8.26 18.35 8.28 18.38 8.31L21.88 12.31C21.91 12.34 21.93 12.37 21.93 12.41C21.94 12.45 21.94 12.49 21.92 12.53C21.91 12.56 21.89 12.6 21.86 12.62C21.83 12.65 21.79 12.66 21.75 12.67Z" fill="#FFFFFF" fill-opacity="1.000000" fill-rule="nonzero"/>
		<path id="Vector" d="M24.19 6.71C24.22 6.7 24.24 6.68 24.26 6.65C24.64 6.13 24.16 5.97 24.16 5.97L16.68 6.57C16.65 6.57 16.61 6.57 16.58 6.56C16.54 6.54 16.51 6.52 16.49 6.5C16.47 6.47 16.45 6.44 16.44 6.4C16.43 6.37 16.43 6.33 16.44 6.3C16.57 5.67 16.8 5.07 17.12 4.52C17.16 4.45 17.21 4.39 17.28 4.35C17.35 4.31 17.43 4.29 17.51 4.29C17.59 4.29 17.67 4.31 17.74 4.35C17.81 4.39 17.86 4.45 17.9 4.52L17.9 5.14C17.89 5.18 17.91 5.22 17.93 5.26C17.97 5.32 18.03 5.37 18.09 5.41C18.12 5.43 18.16 5.44 18.2 5.44C18.23 5.44 18.27 5.43 18.3 5.41C18.33 5.39 18.36 5.37 18.38 5.34C18.4 5.31 18.41 5.28 18.41 5.24C18.47 4.75 18.49 3.66 17.47 3.62C16.09 3.55 15.73 6.15 15.65 7.11C15.64 7.15 15.65 7.2 15.66 7.24C15.68 7.29 15.7 7.33 15.73 7.36C15.76 7.39 15.8 7.42 15.84 7.43C15.89 7.45 15.93 7.46 15.98 7.46L17.1 7.46C17.13 7.46 17.16 7.47 17.19 7.48C17.22 7.49 17.24 7.51 17.26 7.53C17.28 7.55 17.3 7.58 17.31 7.61C17.32 7.64 17.32 7.67 17.32 7.7L16.79 13.34C16.79 13.4 16.77 13.45 16.73 13.48C16.69 13.52 16.64 13.54 16.59 13.54L15.02 13.64C14.98 13.64 14.95 13.63 14.92 13.62C14.89 13.61 14.86 13.59 14.84 13.56C14.82 13.54 14.8 13.51 14.79 13.47C14.78 13.44 14.78 13.41 14.79 13.38C14.84 13.1 14.87 12.83 14.88 12.55C14.88 12.28 14.64 12.17 14.51 12.1C14.5 12.08 14.48 12.08 14.46 12.07C14.43 12.07 14.41 12.08 14.39 12.08C14.38 12.09 14.36 12.1 14.35 12.12C14.33 12.14 14.32 12.16 14.32 12.18L13.7 15.15C13.69 15.18 13.69 15.22 13.7 15.25C13.71 15.29 13.73 15.32 13.75 15.35C13.82 15.42 13.92 15.47 14.03 15.47C14.08 15.48 14.12 15.47 14.17 15.44C14.21 15.41 14.24 15.37 14.26 15.33L14.51 14.59C14.52 14.55 14.55 14.52 14.58 14.49C14.61 14.47 14.65 14.45 14.7 14.45L16.56 14.26C16.6 14.26 16.63 14.26 16.66 14.27C16.7 14.29 16.73 14.31 16.75 14.33L20.75 18.72C20.77 18.74 20.79 18.76 20.82 18.77C20.85 18.79 20.88 18.79 20.91 18.79L21.06 18.79C21.11 18.79 21.15 18.78 21.19 18.75C21.23 18.72 21.26 18.69 21.27 18.64L23.17 13.02C23.18 12.98 23.18 12.95 23.18 12.91C23.17 12.87 23.15 12.84 23.13 12.81L18.74 7.54C18.72 7.52 18.71 7.49 18.7 7.46C18.69 7.43 18.69 7.4 18.69 7.37L18.69 7.32C18.7 7.27 18.72 7.22 18.76 7.19C18.79 7.15 18.84 7.13 18.89 7.13L24.1 6.74C24.14 6.73 24.17 6.73 24.19 6.71ZM20.91 17.35C20.9 17.39 20.88 17.42 20.85 17.44C20.82 17.47 20.79 17.48 20.75 17.49C20.71 17.5 20.67 17.5 20.64 17.48C20.6 17.47 20.57 17.45 20.54 17.42L17.84 14.5C17.82 14.47 17.8 14.43 17.79 14.39C17.78 14.35 17.79 14.31 17.8 14.28C17.81 14.24 17.84 14.21 17.87 14.18C17.9 14.15 17.93 14.14 17.97 14.13L21.87 13.5C21.9 13.5 21.93 13.5 21.96 13.51C21.99 13.52 22.02 13.54 22.04 13.56C22.07 13.58 22.08 13.6 22.1 13.63C22.11 13.66 22.12 13.69 22.12 13.72L22.12 13.93C22.13 13.96 22.13 13.98 22.13 14.01L20.91 17.35ZM17.77 13.3C17.73 13.3 17.7 13.3 17.67 13.29C17.64 13.28 17.61 13.26 17.59 13.24C17.56 13.21 17.54 13.18 17.53 13.15C17.52 13.12 17.52 13.09 17.52 13.06L18.01 8.42C18.02 8.38 18.04 8.35 18.06 8.32C18.09 8.29 18.12 8.27 18.16 8.26C18.2 8.24 18.24 8.24 18.28 8.25C18.32 8.26 18.35 8.28 18.38 8.31L21.88 12.31C21.91 12.34 21.93 12.37 21.93 12.41C21.94 12.45 21.94 12.49 21.92 12.53C21.91 12.56 21.89 12.6 21.86 12.62C21.83 12.65 21.79 12.66 21.75 12.67L17.77 13.3Z" stroke="#FFFFFF" stroke-opacity="1.000000" stroke-width="0.243800"/>
		<path id="Vector" d="M65.63 41.29L67.31 36.83L63.49 34.04L68.37 34.04L69.93 29.62L71.2 34.12L75.87 34.12L71.93 36.75L73.12 41.29L69.68 38.71L65.63 41.29Z" fill="#F57520" fill-opacity="1.000000" fill-rule="nonzero"/>
		<path id="Vector" d="M45.53 48.76L50.42 48.76L64.03 1.62L59.14 1.62L45.53 48.76Z" fill="#FFFFFF" fill-opacity="1.000000" fill-rule="nonzero"/>
		<path id="Union" d="M54.25 44.0493L52.7383 48.7627L72.3037 48.7627C73.9326 48.7627 75.3599 48.5112 76.6104 48.0742C78.8428 47.4116 80.8906 46.2129 82.5557 44.5156C85.147 41.875 86.606 38.3257 86.6221 34.624C86.605 30.8984 85.1274 27.3286 82.5068 24.6836C82.29 24.4648 82.0669 24.269 81.8379 24.0938C82.1777 23.853 82.5034 23.5767 82.814 23.2603C85.2407 20.7856 86.6074 17.4595 86.623 13.9907C86.6069 10.4995 85.2686 7.04102 82.814 4.5625C81.2993 3.03271 79.4346 2.29053 77.4097 1.93555C77.2075 1.87793 76.9893 1.83398 76.7505 1.80518C75.0308 1.59912 74.4819 1.60547 73.3335 1.61914C72.9971 1.62305 72.6094 1.62744 72.126 1.62744L66.0786 1.62744L65.1001 5.80762L73.501 5.80762C75.7529 5.82568 77.8965 6.07324 79.4829 7.6748C81.0693 9.27734 81.9312 11.7344 81.9312 13.9907C81.9307 16.2324 81.0518 18.3843 79.4829 19.9834C78.6006 20.8823 77.54 21.5659 76.3828 21.999C75.667 22.1924 74.8618 22.231 73.6377 22.2603C71.3096 22.3159 70.5361 22.3022 69.5088 22.2837C68.8877 22.2729 68.1738 22.2603 66.9678 22.2603L60.209 22.2603L58.875 26.5293L72.6118 26.5293L72.6118 26.5293C72.7173 26.5303 72.8228 26.5312 72.9277 26.5317C73.2529 26.5337 73.5747 26.5361 73.8926 26.543C74.5811 26.5669 75.2852 26.6226 75.9839 26.7153C77.0894 26.9106 78.1035 27.3213 78.9697 28.1958C80.6631 29.9053 81.6138 32.2158 81.6138 34.624C81.6133 37.0161 80.6748 39.3125 78.9995 41.0186C77.3867 42.6621 75.2979 43.9126 73.0112 44.04C72.5972 44.0503 72.166 44.0498 71.7134 44.0493C71.6147 44.0493 71.5151 44.0493 71.4146 44.0493L54.25 44.0493Z" clip-rule="evenodd" fill="#FFFFFF" fill-opacity="1.000000" fill-rule="evenodd"/>
		<path id="Vector" d="M0.88 1.62L5.69 1.62L17.16 41.38L15.38 48.76L0.88 1.62Z" fill="#FFFFFF" fill-opacity="1.000000" fill-rule="nonzero"/>
		<path id="Vector" d="M17.25 48.76L21.96 48.76L31.92 10.16L43.31 48.76L45.62 41.2L33.7 1.62L29.26 1.62L17.25 48.76Z" fill="#FFFFFF" fill-opacity="1.000000" fill-rule="nonzero"/>
	</g>
</svg>
