<svg width="87" height="49" viewBox="0 0 87 49" fill="none" xmlns="http://www.w3.org/2000/svg">
<path d="M20.8638 22.3305C23.0006 22.3305 24.7329 20.5546 24.7329 18.3639C24.7329 16.1732 23.0006 14.3972 20.8638 14.3972C18.7269 14.3972 16.9947 16.1732 16.9947 18.3639C16.9947 20.5546 18.7269 22.3305 20.8638 22.3305Z" stroke="white" stroke-width="0.731399" stroke-miterlimit="10"/>
<path d="M23.9586 10.2722C26.0955 10.2722 27.8277 8.49628 27.8277 6.30558C27.8277 4.11487 26.0955 2.33895 23.9586 2.33895C21.8218 2.33895 20.0895 4.11487 20.0895 6.30558C20.0895 8.49628 21.8218 10.2722 23.9586 10.2722Z" stroke="white" stroke-width="0.731399" stroke-miterlimit="10"/>
<path d="M24.1095 6.74202C24.1405 6.73996 24.1707 6.73128 24.198 6.71656C24.2254 6.70184 24.2492 6.68142 24.268 6.65669C24.6483 6.13252 24.1656 5.97649 24.1656 5.97649L16.6883 6.5738C16.6525 6.57841 16.6162 6.57424 16.5824 6.56164C16.5486 6.54905 16.5184 6.52842 16.4944 6.50152C16.4704 6.47463 16.4533 6.4423 16.4446 6.40731C16.4359 6.37233 16.4358 6.33575 16.4445 6.30074C16.5765 5.67817 16.8051 5.08012 17.1222 4.52832C17.1607 4.45814 17.2173 4.39959 17.2861 4.3588C17.355 4.31802 17.4335 4.2965 17.5135 4.2965C17.5935 4.2965 17.6721 4.31802 17.7409 4.3588C17.8098 4.39959 17.8664 4.45814 17.9048 4.52832L17.9024 5.14269C17.8998 5.18456 17.91 5.22621 17.9316 5.26216C17.9738 5.32652 18.0306 5.37999 18.0974 5.41819C18.1291 5.43465 18.1642 5.44315 18.1999 5.44295C18.2356 5.44276 18.2706 5.43387 18.3021 5.41706C18.3336 5.40025 18.3604 5.37603 18.3804 5.34649C18.4004 5.31695 18.4129 5.28298 18.4168 5.24753C18.4753 4.75993 18.4899 3.66771 17.4709 3.62382C16.0958 3.55556 15.7374 6.1569 15.6521 7.11504C15.6479 7.1602 15.6534 7.20574 15.6682 7.24862C15.683 7.29151 15.7067 7.33075 15.7379 7.36373C15.769 7.39671 15.8068 7.42269 15.8488 7.43992C15.8908 7.45715 15.9359 7.46525 15.9812 7.46367H17.1027C17.1336 7.46386 17.1641 7.47049 17.1922 7.48313C17.2204 7.49578 17.2456 7.51416 17.2663 7.53711C17.2869 7.56005 17.3026 7.58706 17.3122 7.61639C17.3218 7.64573 17.3252 7.67675 17.3221 7.70747L16.798 13.349C16.7938 13.4019 16.7705 13.4514 16.7323 13.4883C16.6941 13.5251 16.6437 13.5467 16.5907 13.5489L15.0207 13.6416C14.9873 13.6432 14.9541 13.6373 14.9233 13.6243C14.8926 13.6112 14.8652 13.5915 14.8432 13.5664C14.8211 13.5413 14.8051 13.5116 14.7961 13.4794C14.7872 13.4473 14.7856 13.4135 14.7915 13.3807C14.8459 13.1099 14.8785 12.8351 14.889 12.5591C14.889 12.2812 14.6452 12.1788 14.5184 12.1007C14.5011 12.0891 14.4812 12.0819 14.4604 12.0798C14.4396 12.0777 14.4187 12.0808 14.3994 12.0888C14.3801 12.0967 14.3631 12.1093 14.3498 12.1255C14.3365 12.1416 14.3275 12.1607 14.3234 12.1812L13.7017 15.1531C13.6937 15.1879 13.6944 15.2241 13.7038 15.2586C13.7131 15.293 13.7308 15.3246 13.7553 15.3506C13.8284 15.4257 13.9264 15.4716 14.0308 15.4798C14.0802 15.4841 14.1295 15.4719 14.171 15.4449C14.2126 15.418 14.2439 15.3779 14.26 15.3311L14.516 14.5997C14.5293 14.5597 14.5539 14.5245 14.5868 14.4981C14.6196 14.4717 14.6594 14.4554 14.7013 14.451L16.5688 14.2657C16.6031 14.2621 16.6377 14.2666 16.6699 14.2789C16.7021 14.2912 16.7309 14.3109 16.7541 14.3364L20.7524 18.7248C20.7731 18.7477 20.7982 18.766 20.8264 18.7786C20.8545 18.7911 20.8849 18.7977 20.9157 18.7979H21.0669C21.1133 18.7982 21.1587 18.7837 21.1964 18.7565C21.234 18.7293 21.2621 18.6909 21.2766 18.6468L23.1733 13.0247C23.1854 12.989 23.1882 12.9507 23.1813 12.9136C23.1745 12.8765 23.1583 12.8418 23.1343 12.8126L18.7459 7.54656C18.7259 7.52381 18.7109 7.49703 18.7021 7.46801C18.6932 7.43899 18.6907 7.40841 18.6947 7.37834V7.32714C18.7008 7.27653 18.7244 7.22962 18.7613 7.19448C18.7982 7.15933 18.8462 7.13814 18.8971 7.13454L24.1095 6.74202ZM22.1372 14.0146L20.9182 17.3571C20.9049 17.3925 20.8828 17.424 20.854 17.4485C20.8251 17.473 20.7905 17.4898 20.7533 17.4971C20.7162 17.5044 20.6778 17.5021 20.6418 17.4904C20.6057 17.4787 20.5733 17.458 20.5476 17.4302L17.8487 14.5046C17.8219 14.475 17.8035 14.4387 17.7956 14.3995C17.7877 14.3604 17.7905 14.3198 17.8037 14.2821C17.817 14.2443 17.8401 14.2109 17.8708 14.1853C17.9015 14.1597 17.9385 14.1428 17.978 14.1365L21.8788 13.5075C21.9093 13.5044 21.9401 13.5078 21.9693 13.5172C21.9984 13.5267 22.0253 13.5421 22.0482 13.5625C22.0711 13.5829 22.0896 13.6078 22.1024 13.6357C22.1152 13.6636 22.122 13.6938 22.1226 13.7244V13.9366C22.1327 13.9613 22.1376 13.9878 22.1372 14.0146ZM21.7569 12.6761L17.7707 13.3051C17.7379 13.3086 17.7046 13.3046 17.6735 13.2936C17.6423 13.2826 17.6141 13.2647 17.5907 13.2413C17.5673 13.218 17.5495 13.1897 17.5384 13.1585C17.5274 13.1274 17.5235 13.0942 17.5269 13.0613L18.0145 8.42912C18.0223 8.3902 18.0404 8.35408 18.0669 8.32454C18.0934 8.29499 18.1274 8.27311 18.1652 8.26115C18.2031 8.2492 18.2435 8.24762 18.2821 8.25658C18.3208 8.26554 18.3564 8.28471 18.3851 8.31209L21.8885 12.3128C21.9141 12.3427 21.9313 12.3788 21.9384 12.4174C21.9454 12.4561 21.9421 12.496 21.9287 12.5329C21.9153 12.5699 21.8923 12.6026 21.8621 12.6278C21.832 12.6529 21.7956 12.6696 21.7569 12.6761Z" fill="white" stroke="white" stroke-width="0.2438" stroke-miterlimit="10"/>
<path d="M65.6304 41.2971L67.3101 36.8307L63.4995 34.0465H68.3731L69.931 29.6216L71.2012 34.127H75.8699L71.9375 36.7503L73.1272 41.2971L69.6847 38.7153" fill="#F57520"/>
<path d="M45.5347 48.7628H50.4261L64.0331 1.62748H59.1417L45.5347 48.7628Z" fill="white"/>
<path fill-rule="evenodd" clip-rule="evenodd" d="M52.7383 48.7628L54.2501 44.0493H71.4145L71.7135 44.0495C72.1615 44.05 72.5882 44.0505 72.9986 44.0403C75.29 43.9169 77.3833 42.6646 78.9995 41.0182C80.6744 39.3121 81.613 37.0157 81.6134 34.6235C81.6135 32.2155 80.6631 29.9051 78.9693 28.1954C78.1052 27.3232 77.094 26.9124 75.9914 26.7165C75.2809 26.6217 74.5645 26.5653 73.8648 26.5419C73.5559 26.5356 73.2432 26.5335 72.9276 26.5314C72.8257 26.5307 72.7235 26.53 72.6211 26.5292H58.8747L60.2088 22.2603H66.9678C68.1738 22.2603 68.8877 22.2729 69.5087 22.2839C70.5363 22.3021 71.3097 22.3158 73.6379 22.2603C74.8619 22.2312 75.6672 22.1925 76.3827 21.9992C77.54 21.5659 78.6006 20.8822 79.4827 19.9832C81.0516 18.3843 81.9309 16.2324 81.9312 13.9907C81.9313 11.7342 81.0693 9.27716 79.4827 7.67504C77.8965 6.07326 75.7531 5.82591 73.5006 5.80742H65.1002L66.0784 1.6275H72.126C72.6095 1.6275 72.9971 1.62294 73.3334 1.61898C74.4817 1.60546 75.0308 1.599 76.7506 1.80537C76.989 1.83398 77.2073 1.87799 77.4097 1.93573C79.4345 2.29054 81.2992 3.03293 82.8137 4.56233C85.2684 7.0411 86.6069 10.4995 86.6228 13.9907C86.6075 17.4596 85.2409 20.7856 82.8137 23.2604C82.5034 23.5768 82.1776 23.8528 81.838 24.0937C82.0669 24.2688 82.2899 24.4645 82.5065 24.6832C85.1271 27.3283 86.605 30.8981 86.622 34.6235C86.6057 38.3253 85.1467 41.8745 82.5556 44.5154C80.8927 46.2102 78.8475 47.4083 76.6184 48.0711C75.3662 48.51 73.9359 48.7628 72.3039 48.7628H52.7383Z" fill="white"/>
<path d="M0.889008 1.62724H5.69148L17.164 41.381L15.3853 48.7626L0.889008 1.62724Z" fill="white"/>
<path d="M17.2539 48.7627H21.9675L31.9281 10.1651L43.3118 48.7627L45.6241 41.2033L33.7068 1.62741H29.2601L17.2539 48.7627Z" fill="white"/>
</svg>
